HIERARCHY
ROOT Hips
{
	OFFSET 0.000000 0.000000 0.000000 
	CHANNELS 6 Xposition Yposition Zposition Zrotation Yrotation Xrotation
	JOINT LeftUpLeg
	{
		OFFSET 1.363060 -1.794630 0.839290 
		CHANNELS 3 Zrotation Yrotation Xrotation
		JOINT LeftLeg
		{
			OFFSET 2.448110 -6.726130 0.000000 
			CHANNELS 3 Zrotation Yrotation Xrotation
			JOINT LeftFoot
			{
				OFFSET 2.562200 -7.039590 0.000000 
				CHANNELS 3 Zrotation Yrotation Xrotation
				JOINT LeftToeBase
				{
					OFFSET 0.157640 -0.433110 2.322550 
					CHANNELS 3 Zrotation Yrotation Xrotation
					End Site
					{
						OFFSET 0.000000 0.000000 0.000000 
					}
				}
			}
		}
	}
	JOINT RightUpLeg
	{
		OFFSET -1.305520 -1.794630 0.839290 
		CHANNELS 3 Zrotation Yrotation Xrotation
		JOINT RightLeg
		{
			OFFSET -2.542530 -6.985550 0.000000 
			CHANNELS 3 Zrotation Yrotation Xrotation
			JOINT RightFoot
			{
				OFFSET -2.568260 -7.056230 0.000000 
				CHANNELS 3 Zrotation Yrotation Xrotation
				JOINT RightToeBase
				{
					OFFSET -0.164730 -0.452590 2.363150 
					CHANNELS 3 Zrotation Yrotation Xrotation
					End Site
					{
						OFFSET 0.000000 0.000000 0.000000 
					}
				}
			}
		}
	}
	JOINT Spine
	{
		OFFSET 0.028270 2.035590 -0.193380 
		CHANNELS 3 Zrotation Yrotation Xrotation
		JOINT Spine1
		{
			OFFSET 0.056720 2.048850 -0.042750 
			CHANNELS 3 Zrotation Yrotation Xrotation
			JOINT Neck1
			{
				OFFSET -0.054170 1.746240 0.172020 
				CHANNELS 3 Zrotation Yrotation Xrotation
				JOINT Head
				{
					OFFSET 0.104070 1.761360 -0.123970 
					CHANNELS 3 Zrotation Yrotation Xrotation
					End Site
					{
						OFFSET 0.000000 0.000000 0.000000 
					}
				}
			}
			JOINT LeftArm
			{
				OFFSET 3.362410 1.200890 -0.311210 
				CHANNELS 3 Zrotation Yrotation Xrotation
				JOINT LeftForeArm
				{
					OFFSET 4.983000 -0.000000 -0.000000 
					CHANNELS 3 Zrotation Yrotation Xrotation
					JOINT LeftHand
					{
						OFFSET 3.483560 -0.000000 -0.000000 
						CHANNELS 3 Zrotation Yrotation Xrotation
						JOINT LeftHandIndex1
						{
							OFFSET 0.715260 -0.000000 -0.000000 
							CHANNELS 3 Zrotation Yrotation Xrotation
							End Site
							{
								OFFSET 0.000000 0.000000 0.000000 
							}
						}
					}
				}
			}
			JOINT RightArm
			{
				OFFSET -3.136600 1.374050 -0.404650 
				CHANNELS 3 Zrotation Yrotation Xrotation
				JOINT RightForeArm
				{
					OFFSET -5.241900 -0.000000 -0.000000 
					CHANNELS 3 Zrotation Yrotation Xrotation
					JOINT RightHand
					{
						OFFSET -3.444170 -0.000000 -0.000000 
						CHANNELS 3 Zrotation Yrotation Xrotation
						JOINT RightHandIndex1
						{
							OFFSET -0.622530 -0.000000 -0.000000 
							CHANNELS 3 Zrotation Yrotation Xrotation
							End Site
							{
								OFFSET 0.000000 0.000000 0.000000 
							}
						}
					}
				}
			}
		}
	}
}
MOTION
Frames: 18
Frame Time: 0.041667
-27.026993 17.466028 1.569401 177.509146 27.756241 -170.143494 -9.519081 7.865143 -26.244282 4.969519 14.585102 42.195120 -3.709489 17.468000 1.313517 0.392900 -4.024600 -11.145900 30.731660 -2.468096 -12.592038 -0.922351 -10.490581 23.779275 -0.673629 -20.505785 -39.264169 -1.314000 -7.260700 20.490000 0.697351 -0.507634 -1.804061 -4.258309 0.320857 13.873448 0.772697 15.184400 13.539645 -1.546700 7.480000 12.632500 -76.229407 -19.447730 78.755604 104.987774 -57.882522 -69.029882 0.838650 -0.362615 -36.800776 -7.125000 0.000000 0.000000 79.037826 44.915862 104.580001 -119.080850 50.189603 -80.032593 0.712052 0.123703 -7.377755 7.125000 0.000000 0.000000 
-27.023080 17.457568 1.550050 177.685653 28.114716 -170.148154 -9.431743 7.818732 -26.471413 5.050053 14.659681 42.548141 -3.530590 16.792559 1.541262 0.416700 -4.143400 -11.480400 30.877604 -1.955680 -12.249290 -0.916673 -10.507183 23.796958 -0.659773 -20.491956 -39.189573 -1.702800 -8.217400 23.376400 0.713030 -0.382717 -1.768808 -4.143527 0.375389 13.961660 0.759370 15.157764 13.478894 -1.552200 7.455400 12.620200 -76.296354 -19.464252 78.913633 105.186309 -57.844193 -69.194038 0.849037 -0.352813 -36.758564 -7.125000 0.000000 0.000000 78.807519 44.986973 104.462801 -118.916005 50.220883 -79.904549 0.725563 0.109430 -7.014390 7.125000 0.000000 0.000000 
-27.025936 17.464230 1.527208 177.424259 28.630553 -170.219206 -9.733932 7.560266 -26.755522 5.082492 14.749623 42.793601 -3.400601 16.319148 1.634939 0.492200 -4.498200 -12.482700 30.516239 -1.979107 -12.139320 -0.907763 -10.423639 23.602981 -0.578404 -20.428967 -38.603862 -1.805000 -8.447500 24.081600 0.697236 -0.266315 -1.749665 -3.967030 0.412575 14.015350 0.691517 15.240983 13.332036 -1.569400 7.474000 12.517900 -76.420064 -19.460062 78.852029 105.271108 -57.830163 -69.265743 0.855168 -0.353877 -36.500985 -7.125000 0.000000 0.000000 78.602805 44.907792 104.510533 -118.780567 50.255409 -79.777649 0.734567 0.077878 -6.275105 7.125000 0.000000 0.000000 
-27.019485 17.469094 1.504895 177.684659 28.988724 -170.358376 -9.272687 6.943974 -26.503036 5.108418 14.783948 43.003559 -3.214451 15.483151 1.155460 0.429200 -4.204600 -11.653000 30.751914 -2.163776 -11.722177 -0.883226 -10.372424 23.451117 -0.517187 -20.475648 -38.302236 -1.751900 -8.328900 23.717600 0.708037 -0.258831 -1.720164 -4.002843 0.417431 13.951661 0.622087 15.289640 13.200033 -1.636100 7.504400 12.429000 -76.420289 -19.395122 78.743879 105.067624 -57.868486 -69.087885 0.860900 -0.368240 -36.092587 -7.125000 0.000000 0.000000 78.792778 44.659578 104.520529 -118.772140 50.282649 -79.738623 0.737999 0.061134 -5.820967 7.125000 0.000000 0.000000 
-27.020754 17.475757 1.478353 177.707682 29.405765 -170.509596 -9.020779 6.054059 -26.185942 5.070911 14.812736 43.077206 -3.046931 14.652557 -0.063142 0.268400 -3.332900 -9.207000 30.687427 -3.008732 -11.642949 -0.877595 -10.301135 23.299483 -0.423129 -20.186354 -37.360509 -1.632100 -8.053700 22.877200 0.674536 -0.183783 -1.698291 -4.125831 0.454250 13.931836 0.479876 15.254832 13.154218 -1.780800 7.507300 12.441600 -76.369171 -19.298297 78.794719 104.904334 -57.902967 -68.929024 0.856574 -0.353588 -35.827643 -7.125000 0.000000 0.000000 79.080365 44.490439 104.587820 -118.915383 50.262648 -79.873739 0.757415 0.068059 -6.078252 7.125000 0.000000 0.000000 
-27.025618 17.479458 1.448849 177.579845 29.892816 -170.640476 -9.008378 5.348828 -26.074300 5.019396 14.830499 43.039793 -2.930987 14.144069 -0.675483 0.180000 -2.732900 -7.536100 30.444761 -3.553098 -11.567756 -0.873627 -10.222521 23.135523 -0.382665 -19.820521 -36.635674 -1.519800 -7.784600 22.061900 0.687238 -0.130580 -1.670519 -3.891765 0.459011 14.007419 0.419194 15.272826 13.137534 -1.809000 7.505000 12.432900 -76.508984 -19.284950 78.901382 105.030878 -57.884350 -69.003252 0.841656 -0.317884 -35.739041 -7.125000 0.000000 0.000000 78.934634 44.428369 104.784288 -119.064344 50.212034 -80.076173 0.784798 0.077055 -6.578467 7.125000 0.000000 0.000000 
-27.029954 17.480409 1.417230 177.725300 30.375900 -170.583692 -8.780494 4.789494 -26.072357 4.956654 14.787392 42.835486 -2.856259 13.867389 -0.537655 0.094400 -1.981900 -5.455500 30.462683 -3.478077 -11.438255 -0.868721 -10.200984 23.080743 -0.397881 -19.596756 -36.469437 -1.476900 -7.679000 21.743200 0.682716 -0.085078 -1.679595 -3.901085 0.479181 13.965240 0.642056 15.396481 13.247368 -1.619200 7.547500 12.502500 -76.450000 -19.282068 78.883850 105.044029 -57.879051 -69.024802 0.838700 -0.319670 -35.729547 -7.125000 0.000000 0.000000 79.013349 44.341912 104.623521 -118.748598 50.323092 -79.693728 0.746787 0.073356 -6.016679 7.125000 0.000000 0.000000 
-27.036193 17.477554 1.382757 177.866755 30.861411 -170.582428 -8.614161 4.482563 -26.086249 4.872989 14.705700 42.503010 -2.787153 13.657458 0.020170 0.243900 -3.177900 -8.774500 30.468163 -3.288930 -11.188201 -0.864983 -10.190127 23.053623 -0.401038 -19.501406 -36.380969 -1.499300 -7.734400 21.910300 0.633468 -0.044160 -1.646751 -4.192289 0.515547 14.023387 0.600648 15.433085 13.108730 -1.664600 7.567200 12.436700 -76.237855 -19.393990 78.748324 104.931343 -57.896621 -68.966350 0.842486 -0.340279 -35.689739 -7.125000 0.000000 0.000000 79.224626 44.443621 104.860187 -118.847693 50.288666 -79.783467 0.780265 0.066239 -6.059750 7.125000 0.000000 0.000000 
-27.048037 17.474170 1.346591 177.809623 31.416351 -170.736891 -8.631311 4.231037 -26.062194 4.764625 14.614857 42.083720 -2.676986 13.368020 1.050660 0.428400 -4.200500 -11.641300 30.256236 -3.231449 -10.843787 -0.859898 -10.138252 22.945163 -0.393801 -19.320356 -36.100589 -1.562300 -7.887800 22.373900 0.621269 0.023235 -1.604960 -4.094497 0.533434 14.095100 0.537368 15.600732 12.990130 -1.678500 7.629300 12.369700 -76.320715 -19.446379 78.787520 104.896286 -57.903123 -68.919509 0.840769 -0.333935 -35.605086 -7.125000 0.000000 0.000000 79.073806 44.589753 104.793015 -118.798006 50.290849 -79.764484 0.780132 0.070438 -6.088851 7.125000 0.000000 0.000000 
-27.054064 17.475439 1.309051 178.017858 32.086632 -170.575718 -8.342862 3.913906 -26.154624 4.650024 14.480659 41.602993 -2.619191 13.196334 1.528567 0.473100 -4.411400 -12.237100 30.297436 -3.094866 -10.664501 -0.832939 -10.051422 22.696720 -0.356203 -19.155813 -35.652018 -1.532500 -7.815600 22.155400 0.486095 0.226411 -1.676848 -4.755418 0.657953 13.706770 0.624944 15.553607 12.943920 -1.738500 7.679000 12.297200 -75.635214 -18.973291 78.810931 105.019132 -57.893611 -69.093574 0.845255 -0.334877 -35.527788 -7.125000 0.000000 0.000000 79.843547 44.335403 104.999028 -118.659694 50.358736 -79.524773 0.825108 0.053950 -6.333739 7.125000 0.000000 0.000000 
-27.055228 17.485803 1.270770 178.208836 32.662133 -170.432427 -7.815876 3.110919 -25.961006 4.502013 14.341018 41.077202 -2.586313 12.960370 0.842294 0.284100 -3.428200 -9.473400 30.426088 -2.888257 -10.300668 -0.780614 -9.918378 22.290948 -0.274997 -19.297755 -35.285502 -1.397700 -7.479100 21.142800 0.612709 0.193745 -1.633005 -4.041310 0.600467 13.896640 0.507799 15.731718 12.902249 -1.743600 7.718500 12.278300 -76.192036 -19.051694 78.806153 105.155530 -57.869323 -69.142299 0.838861 -0.310544 -35.298645 -7.125000 0.000000 0.000000 79.234574 44.543964 104.961111 -118.529484 50.373361 -79.494632 0.814285 0.064268 -6.683287 7.125000 0.000000 0.000000 
-27.063053 17.503991 1.228365 178.436511 33.262248 -170.267033 -7.130207 1.915212 -25.579091 4.327663 14.185840 40.499057 -2.386206 12.099990 0.357061 0.055400 -1.518400 -4.176300 30.492657 -2.873784 -9.987094 -0.724702 -9.746266 21.794987 -0.181317 -19.344619 -34.691553 -1.289900 -7.196300 20.298200 0.516404 0.274531 -1.645640 -4.571169 0.665919 13.819086 0.558343 15.864591 12.842507 -1.715600 7.786300 12.278100 -75.811115 -18.928924 78.617026 105.235537 -57.862161 -69.281359 0.832159 -0.324396 -35.088302 -7.125000 0.000000 0.000000 79.736699 44.627006 105.164050 -118.597745 50.357215 -79.512648 0.846336 0.060167 -6.648700 7.125000 0.000000 0.000000 
-27.079867 17.515412 1.180779 178.697369 33.886615 -170.034879 -6.560800 1.114302 -25.432855 4.157784 14.005263 39.831943 -2.281104 11.698672 0.510066 0.008900 -0.609000 -1.673600 30.575911 -3.027367 -9.769006 -0.670960 -9.569360 21.283472 -0.111202 -19.137674 -33.922791 -1.256600 -7.106500 20.031400 0.648485 0.249885 -1.591689 -3.886397 0.618778 14.073798 0.507073 15.990261 12.890764 -1.696800 7.811900 12.311700 -76.534788 -19.116352 78.691237 105.083957 -57.889066 -69.060845 0.831013 -0.275070 -35.015177 -7.125000 0.000000 0.000000 79.003020 44.698629 105.056064 -118.774956 50.280856 -79.812593 0.828755 0.076290 -6.637451 7.125000 0.000000 0.000000 
-27.094143 17.517315 1.129703 178.874794 34.545016 -169.931171 -6.286002 0.775564 -25.470124 3.981257 13.795435 39.063730 -2.315065 11.866345 0.783908 0.013400 -0.746900 -2.052600 30.514957 -3.315887 -9.516804 -0.630842 -9.393179 20.815608 -0.061388 -18.797250 -33.088054 -1.230300 -7.034500 19.817600 0.552686 0.332218 -1.635371 -4.368837 0.677948 13.770955 0.582987 16.098102 12.770785 -1.700700 7.898400 12.210300 -76.042723 -18.754849 78.544258 105.206453 -57.878738 -69.235538 0.825227 -0.258068 -35.331089 -7.125000 0.000000 0.000000 79.446748 44.355527 104.948847 -118.645582 50.349669 -79.574750 0.816229 0.059062 -6.398423 7.125000 0.000000 0.000000 
-27.107890 17.517210 1.075454 179.033607 35.190012 -169.877415 -5.991403 0.333282 -25.372755 3.787449 13.567305 38.207938 -2.349771 12.082312 1.312004 0.038300 -1.263400 -3.473800 30.408931 -3.587121 -9.228240 -0.599936 -9.241198 20.421524 -0.030223 -18.436812 -32.347320 -1.165000 -6.851900 19.277400 0.516610 0.368822 -1.622352 -4.502547 0.696773 13.735057 0.587102 16.249619 12.617184 -1.691900 7.963100 12.136000 -75.898588 -18.647479 78.439861 105.206804 -57.885078 -69.257324 0.813120 -0.231897 -35.611786 -7.125000 0.000000 0.000000 79.546107 44.322471 104.741934 -118.453164 50.416482 -79.345367 0.795104 0.068442 -6.032437 7.125000 0.000000 0.000000 
-27.123012 17.523237 1.018667 179.151831 35.911953 -169.763797 -5.686053 -0.207644 -25.259424 3.581254 13.328220 37.288595 -2.398800 12.380777 1.892802 0.104200 -2.081900 -5.732200 30.266262 -3.849889 -9.069437 -0.577284 -9.109818 20.083043 -0.005295 -18.043881 -31.591583 -1.038900 -6.482600 18.191400 0.547788 0.358378 -1.578652 -4.264568 0.671733 13.974635 0.840531 16.505025 13.021391 -1.488000 8.068200 12.481200 -76.168689 -18.777513 78.361386 104.887768 -57.940400 -68.950320 0.805467 -0.175651 -35.792188 -7.125000 0.000000 0.000000 79.292139 44.496280 104.933504 -118.451061 50.393992 -79.415587 0.828834 0.061817 -6.630078 7.125000 0.000000 0.000000 
-27.141306 17.533283 0.960612 179.366230 36.770571 -169.506513 -5.313203 -0.642785 -25.268071 3.377256 13.060066 36.333251 -2.450430 12.669498 2.383014 0.159000 -2.568900 -7.080700 30.179833 -4.109455 -9.078468 -0.558260 -8.985649 19.757154 0.022668 -17.571817 -30.681480 -0.917800 -6.103800 17.086000 0.434039 0.480712 -1.624779 -4.856498 0.756688 13.665798 0.695022 16.710307 12.787223 -1.635700 8.196100 12.365900 -75.811784 -18.457740 78.116135 104.741239 -57.980403 -68.879047 0.792466 -0.167732 -36.142828 -7.125000 0.000000 0.000000 79.936489 44.296527 104.916000 -118.340573 50.454651 -79.214108 0.840958 0.068229 -6.439624 7.125000 0.000000 0.000000 
-27.168166 17.535821 0.899596 179.689919 37.597769 -169.200385 -4.857253 -0.996008 -25.272689 3.178214 12.775080 35.359679 -2.477511 12.876788 2.969697 0.263400 -3.301800 -9.120200 30.173952 -3.999775 -8.941042 -0.537422 -8.886325 19.476930 0.033657 -17.206871 -30.068210 -0.890800 -6.015800 16.830400 0.443353 0.616519 -1.590341 -4.781997 0.818818 13.703163 0.469124 16.813056 12.558010 -1.791300 8.238100 12.251600 -76.156156 -18.535905 78.238424 104.671791 -57.996816 -68.766605 0.767510 -0.144406 -36.844456 -7.125000 0.000000 0.000000 79.735540 44.338598 104.488067 -118.046489 50.537971 -78.933765 0.818047 0.068087 -6.261995 7.125000 0.000000 0.000000 
